<mxfile host="app.diagrams.net" modified="2020-08-25T01:23:20.399Z" agent="5.0 (Macintosh; Intel Mac OS X 10_13_6) AppleWebKit/605.1.15 (KHTML, like Gecko) Version/13.1.2 Safari/605.1.15" etag="mBnBJ6yWvMSSBtJuPj3m" version="13.6.4" type="github">
  <diagram id="C5RBs43oDa-KdzZeNtuy" name="Page-1">
    <mxGraphModel dx="778" dy="562" grid="1" gridSize="10" guides="1" tooltips="1" connect="1" arrows="1" fold="1" page="1" pageScale="1" pageWidth="827" pageHeight="1169" math="0" shadow="0">
      <root>
        <mxCell id="WIyWlLk6GJQsqaUBKTNV-0" />
        <mxCell id="WIyWlLk6GJQsqaUBKTNV-1" parent="WIyWlLk6GJQsqaUBKTNV-0" />
        <mxCell id="lF8iybV8f1V63adYLOXE-1" value="" style="edgeStyle=orthogonalEdgeStyle;rounded=0;orthogonalLoop=1;jettySize=auto;html=1;" edge="1" parent="WIyWlLk6GJQsqaUBKTNV-1" source="lF8iybV8f1V63adYLOXE-2" target="lF8iybV8f1V63adYLOXE-4">
          <mxGeometry relative="1" as="geometry" />
        </mxCell>
        <mxCell id="lF8iybV8f1V63adYLOXE-2" value="Start" style="strokeWidth=2;html=1;shape=mxgraph.flowchart.start_1;whiteSpace=wrap;" vertex="1" parent="WIyWlLk6GJQsqaUBKTNV-1">
          <mxGeometry x="261" y="80" width="100" height="60" as="geometry" />
        </mxCell>
        <mxCell id="lF8iybV8f1V63adYLOXE-3" value="" style="edgeStyle=orthogonalEdgeStyle;rounded=0;orthogonalLoop=1;jettySize=auto;html=1;" edge="1" parent="WIyWlLk6GJQsqaUBKTNV-1" source="lF8iybV8f1V63adYLOXE-4" target="lF8iybV8f1V63adYLOXE-7">
          <mxGeometry relative="1" as="geometry" />
        </mxCell>
        <mxCell id="lF8iybV8f1V63adYLOXE-4" value="a = ARGV[0]&lt;br&gt;b = ARGV[1]&lt;br&gt;c = ARGV[2]&lt;br&gt;d = ARGV[3]" style="html=1;strokeWidth=2;shape=manualInput;whiteSpace=wrap;rounded=1;size=26;arcSize=11;" vertex="1" parent="WIyWlLk6GJQsqaUBKTNV-1">
          <mxGeometry x="261" y="170" width="100" height="90" as="geometry" />
        </mxCell>
        <mxCell id="lF8iybV8f1V63adYLOXE-5" value="" style="edgeStyle=orthogonalEdgeStyle;rounded=0;orthogonalLoop=1;jettySize=auto;html=1;" edge="1" parent="WIyWlLk6GJQsqaUBKTNV-1" source="lF8iybV8f1V63adYLOXE-7" target="lF8iybV8f1V63adYLOXE-8">
          <mxGeometry relative="1" as="geometry" />
        </mxCell>
        <mxCell id="lF8iybV8f1V63adYLOXE-6" value="" style="edgeStyle=orthogonalEdgeStyle;rounded=0;orthogonalLoop=1;jettySize=auto;html=1;" edge="1" parent="WIyWlLk6GJQsqaUBKTNV-1" source="lF8iybV8f1V63adYLOXE-7" target="lF8iybV8f1V63adYLOXE-13">
          <mxGeometry relative="1" as="geometry" />
        </mxCell>
        <mxCell id="lF8iybV8f1V63adYLOXE-7" value="a != b &lt;br&gt;&amp;amp;&amp;amp; b != c&amp;nbsp;&lt;br&gt;&amp;amp;&amp;amp; c != d" style="strokeWidth=2;html=1;shape=mxgraph.flowchart.decision;whiteSpace=wrap;" vertex="1" parent="WIyWlLk6GJQsqaUBKTNV-1">
          <mxGeometry x="261" y="300" width="100" height="100" as="geometry" />
        </mxCell>
        <mxCell id="lF8iybV8f1V63adYLOXE-8" value="puts &quot;Debes ingresar 4 números distintos&quot;" style="strokeWidth=2;html=1;shape=mxgraph.flowchart.display;whiteSpace=wrap;" vertex="1" parent="WIyWlLk6GJQsqaUBKTNV-1">
          <mxGeometry x="431" y="310" width="140" height="80" as="geometry" />
        </mxCell>
        <mxCell id="lF8iybV8f1V63adYLOXE-9" value="no" style="text;html=1;align=center;verticalAlign=middle;resizable=0;points=[];autosize=1;" vertex="1" parent="WIyWlLk6GJQsqaUBKTNV-1">
          <mxGeometry x="381" y="320" width="30" height="20" as="geometry" />
        </mxCell>
        <mxCell id="lF8iybV8f1V63adYLOXE-10" value="si" style="text;html=1;align=center;verticalAlign=middle;resizable=0;points=[];autosize=1;" vertex="1" parent="WIyWlLk6GJQsqaUBKTNV-1">
          <mxGeometry x="261" y="410" width="20" height="20" as="geometry" />
        </mxCell>
        <mxCell id="lF8iybV8f1V63adYLOXE-11" value="" style="edgeStyle=orthogonalEdgeStyle;rounded=0;orthogonalLoop=1;jettySize=auto;html=1;entryX=0;entryY=0.5;entryDx=0;entryDy=0;entryPerimeter=0;" edge="1" parent="WIyWlLk6GJQsqaUBKTNV-1" source="lF8iybV8f1V63adYLOXE-13" target="lF8iybV8f1V63adYLOXE-14">
          <mxGeometry relative="1" as="geometry" />
        </mxCell>
        <mxCell id="lF8iybV8f1V63adYLOXE-12" value="" style="edgeStyle=orthogonalEdgeStyle;rounded=0;orthogonalLoop=1;jettySize=auto;html=1;" edge="1" parent="WIyWlLk6GJQsqaUBKTNV-1" target="lF8iybV8f1V63adYLOXE-17">
          <mxGeometry relative="1" as="geometry">
            <mxPoint x="311" y="550" as="sourcePoint" />
          </mxGeometry>
        </mxCell>
        <mxCell id="lF8iybV8f1V63adYLOXE-13" value="a &amp;gt; b &lt;br&gt;&amp;amp;&amp;amp; a &amp;gt; c &lt;br&gt;&amp;amp;&amp;amp; a &amp;gt; d&amp;nbsp;" style="strokeWidth=2;html=1;shape=mxgraph.flowchart.decision;whiteSpace=wrap;" vertex="1" parent="WIyWlLk6GJQsqaUBKTNV-1">
          <mxGeometry x="261" y="450" width="100" height="100" as="geometry" />
        </mxCell>
        <mxCell id="lF8iybV8f1V63adYLOXE-14" value="puts &quot;El número #{a} es mayor&quot;" style="strokeWidth=2;html=1;shape=mxgraph.flowchart.display;whiteSpace=wrap;" vertex="1" parent="WIyWlLk6GJQsqaUBKTNV-1">
          <mxGeometry x="431" y="460" width="140" height="80" as="geometry" />
        </mxCell>
        <mxCell id="lF8iybV8f1V63adYLOXE-15" value="si" style="text;html=1;align=center;verticalAlign=middle;resizable=0;points=[];autosize=1;" vertex="1" parent="WIyWlLk6GJQsqaUBKTNV-1">
          <mxGeometry x="386" y="470" width="20" height="20" as="geometry" />
        </mxCell>
        <mxCell id="lF8iybV8f1V63adYLOXE-16" value="no" style="text;html=1;align=center;verticalAlign=middle;resizable=0;points=[];autosize=1;" vertex="1" parent="WIyWlLk6GJQsqaUBKTNV-1">
          <mxGeometry x="256" y="564" width="30" height="20" as="geometry" />
        </mxCell>
        <mxCell id="lF8iybV8f1V63adYLOXE-17" value="b &amp;gt; a&amp;nbsp;&lt;br&gt;&amp;amp;&amp;amp;&amp;nbsp;b &amp;gt; c&amp;nbsp;&lt;br&gt;&amp;amp;&amp;amp; c &amp;gt; d" style="strokeWidth=2;html=1;shape=mxgraph.flowchart.decision;whiteSpace=wrap;" vertex="1" parent="WIyWlLk6GJQsqaUBKTNV-1">
          <mxGeometry x="261" y="600" width="100" height="100" as="geometry" />
        </mxCell>
        <mxCell id="lF8iybV8f1V63adYLOXE-18" value="" style="edgeStyle=orthogonalEdgeStyle;rounded=0;orthogonalLoop=1;jettySize=auto;html=1;entryX=0;entryY=0.5;entryDx=0;entryDy=0;entryPerimeter=0;" edge="1" parent="WIyWlLk6GJQsqaUBKTNV-1" target="lF8iybV8f1V63adYLOXE-19">
          <mxGeometry relative="1" as="geometry">
            <mxPoint x="361" y="650" as="sourcePoint" />
          </mxGeometry>
        </mxCell>
        <mxCell id="lF8iybV8f1V63adYLOXE-19" value="puts &quot;El número #{b} es mayor&quot;" style="strokeWidth=2;html=1;shape=mxgraph.flowchart.display;whiteSpace=wrap;" vertex="1" parent="WIyWlLk6GJQsqaUBKTNV-1">
          <mxGeometry x="431" y="610" width="140" height="80" as="geometry" />
        </mxCell>
        <mxCell id="lF8iybV8f1V63adYLOXE-20" value="si" style="text;html=1;align=center;verticalAlign=middle;resizable=0;points=[];autosize=1;" vertex="1" parent="WIyWlLk6GJQsqaUBKTNV-1">
          <mxGeometry x="386" y="620" width="20" height="20" as="geometry" />
        </mxCell>
        <mxCell id="lF8iybV8f1V63adYLOXE-21" value="" style="edgeStyle=orthogonalEdgeStyle;rounded=0;orthogonalLoop=1;jettySize=auto;html=1;" edge="1" parent="WIyWlLk6GJQsqaUBKTNV-1" target="lF8iybV8f1V63adYLOXE-24">
          <mxGeometry relative="1" as="geometry">
            <mxPoint x="311" y="700" as="sourcePoint" />
          </mxGeometry>
        </mxCell>
        <mxCell id="lF8iybV8f1V63adYLOXE-22" value="no" style="text;html=1;align=center;verticalAlign=middle;resizable=0;points=[];autosize=1;" vertex="1" parent="WIyWlLk6GJQsqaUBKTNV-1">
          <mxGeometry x="256" y="714" width="30" height="20" as="geometry" />
        </mxCell>
        <mxCell id="lF8iybV8f1V63adYLOXE-23" value="" style="edgeStyle=orthogonalEdgeStyle;rounded=0;orthogonalLoop=1;jettySize=auto;html=1;" edge="1" parent="WIyWlLk6GJQsqaUBKTNV-1" source="lF8iybV8f1V63adYLOXE-24" target="lF8iybV8f1V63adYLOXE-33">
          <mxGeometry relative="1" as="geometry">
            <mxPoint x="311" y="896" as="targetPoint" />
          </mxGeometry>
        </mxCell>
        <mxCell id="lF8iybV8f1V63adYLOXE-24" value="c &amp;gt; a&amp;nbsp;&lt;br&gt;&amp;amp;&amp;amp;&amp;nbsp;c &amp;gt; b&amp;nbsp;&lt;br&gt;&amp;amp;&amp;amp; c &amp;gt; d" style="strokeWidth=2;html=1;shape=mxgraph.flowchart.decision;whiteSpace=wrap;" vertex="1" parent="WIyWlLk6GJQsqaUBKTNV-1">
          <mxGeometry x="261" y="750" width="100" height="100" as="geometry" />
        </mxCell>
        <mxCell id="lF8iybV8f1V63adYLOXE-25" value="" style="edgeStyle=orthogonalEdgeStyle;rounded=0;orthogonalLoop=1;jettySize=auto;html=1;entryX=0;entryY=0.5;entryDx=0;entryDy=0;entryPerimeter=0;" edge="1" parent="WIyWlLk6GJQsqaUBKTNV-1" target="lF8iybV8f1V63adYLOXE-26">
          <mxGeometry relative="1" as="geometry">
            <mxPoint x="361" y="800" as="sourcePoint" />
          </mxGeometry>
        </mxCell>
        <mxCell id="lF8iybV8f1V63adYLOXE-26" value="puts &quot;El número #{c} es mayor&quot;" style="strokeWidth=2;html=1;shape=mxgraph.flowchart.display;whiteSpace=wrap;" vertex="1" parent="WIyWlLk6GJQsqaUBKTNV-1">
          <mxGeometry x="431" y="760" width="140" height="80" as="geometry" />
        </mxCell>
        <mxCell id="lF8iybV8f1V63adYLOXE-27" value="si" style="text;html=1;align=center;verticalAlign=middle;resizable=0;points=[];autosize=1;" vertex="1" parent="WIyWlLk6GJQsqaUBKTNV-1">
          <mxGeometry x="386" y="770" width="20" height="20" as="geometry" />
        </mxCell>
        <mxCell id="lF8iybV8f1V63adYLOXE-28" value="Fin" style="strokeWidth=2;html=1;shape=mxgraph.flowchart.start_1;whiteSpace=wrap;" vertex="1" parent="WIyWlLk6GJQsqaUBKTNV-1">
          <mxGeometry x="271" y="1020" width="80" height="44" as="geometry" />
        </mxCell>
        <mxCell id="lF8iybV8f1V63adYLOXE-29" value="no" style="text;html=1;align=center;verticalAlign=middle;resizable=0;points=[];autosize=1;" vertex="1" parent="WIyWlLk6GJQsqaUBKTNV-1">
          <mxGeometry x="256" y="860" width="30" height="20" as="geometry" />
        </mxCell>
        <mxCell id="lF8iybV8f1V63adYLOXE-30" value="" style="edgeStyle=orthogonalEdgeStyle;rounded=0;orthogonalLoop=1;jettySize=auto;html=1;" edge="1" parent="WIyWlLk6GJQsqaUBKTNV-1" source="lF8iybV8f1V63adYLOXE-33">
          <mxGeometry relative="1" as="geometry">
            <mxPoint x="311" y="1036" as="targetPoint" />
            <mxPoint x="311" y="996" as="sourcePoint" />
          </mxGeometry>
        </mxCell>
        <mxCell id="lF8iybV8f1V63adYLOXE-33" value="puts &quot;El número #{d} es mayor&quot;" style="strokeWidth=2;html=1;shape=mxgraph.flowchart.display;whiteSpace=wrap;" vertex="1" parent="WIyWlLk6GJQsqaUBKTNV-1">
          <mxGeometry x="241" y="900" width="140" height="80" as="geometry" />
        </mxCell>
      </root>
    </mxGraphModel>
  </diagram>
</mxfile>
